# xmcd CD database file
#
# Track frame offsets:
#	150
#	44452
#	98255
#	130317
#	173877
#
# Disc length: 2760 seconds
#
# Revision: 0
# Processed by: cddbd v1.5.1PL0 Copyright (c) Steve Scherf et al.
# Submitted via: CDex 1.51
#
DISCID=370ac605
DTITLE=Heinz Sauer Quartet - Cherry Bat
DYEAR=1989
DGENRE=Jazz
TTITLE0=Lush Life
TTITLE1=Cherry Bat
TTITLE2=Green Sleeves
TTITLE3=I Want To Die Easy When I Die
TTITLE4=God Bless The Child
EXTD=YEAR: 1989
EXTT0=
EXTT1=
EXTT2=
EXTT3=
EXTT4=
PLAYORDER=
